<svg width="187" height="186" viewBox="0 0 187 186" fill="none" xmlns="http://www.w3.org/2000/svg">
<path d="M7.39563 57.5112C8.21589 55.1468 9.5901 52.7759 10.7567 50.5644C17.8264 37.1609 28.5691 24.8527 41.1824 16.3255C61.8131 2.37786 86.6715 -3.09476 111.166 1.7065C122.277 3.88432 133.708 8.45733 143.22 14.6263C148.032 17.7468 152.357 21.2793 156.581 25.1444C161.594 29.7301 166.379 34.9704 170.172 40.6271L169.474 40.4358L169.027 40.8108L168.84 40.7126C168.613 40.6003 168.419 40.5463 168.174 40.4923L168.049 40.5999C167.524 41.0278 166.935 41.1597 166.795 41.8901L166.78 42.469C167.164 42.8027 167.165 42.7919 167.368 43.2389C167.544 43.6237 167.896 43.8958 168.073 44.3019L167.781 44.3516C165.418 41.1684 163.191 37.9323 160.558 34.9545C146.58 19.1402 127.363 8.38849 106.445 5.26071C102.129 4.61508 97.7247 4.16003 93.3553 4.1604C74.3926 4.1633 55.8209 10.7138 40.6237 21.9528C31.0686 29.0188 22.2584 38.6391 16.2601 48.9228C15.0663 50.9694 13.966 53.0806 12.9269 55.2095C12.3596 56.3721 11.8828 57.6757 11.2194 58.7782L10.5817 59.3622L10.5078 59.5941C10.3959 59.9281 10.264 60.4727 9.94698 60.6296L10.7415 58.2373L10.8484 58.0014C10.7143 57.4703 10.6966 56.9536 10.6709 56.4098C10.2825 56.1892 10.0738 56.1692 9.6296 56.1808C9.35424 56.3453 9.11911 56.5275 8.78941 56.5547L8.63036 56.5497C8.35718 56.7319 8.24305 56.829 8.07712 57.125L7.95503 57.3663L7.39563 57.5112Z" fill="black"/>
<path d="M167.781 44.3516L168.073 44.3019C167.895 43.8958 167.544 43.6237 167.368 43.2389C167.165 42.7919 167.164 42.8027 166.78 42.469L166.795 41.8901C166.935 41.1597 167.524 41.0278 168.049 40.5999L168.174 40.4923C168.419 40.5463 168.613 40.6003 168.84 40.7126L169.027 40.8108L169.474 40.4358L170.172 40.6271C172.405 43.703 174.31 47.108 176.093 50.4651C177.799 53.6773 179.444 56.9424 180.763 60.3357C186.53 75.1638 188.183 91.716 185.705 107.399C184.986 111.954 184.142 116.572 182.779 120.979C176.871 140.102 163.85 156.757 147.752 168.401C128.154 182.576 102.859 188.465 79.0153 184.637C54.326 180.674 32.2715 167.084 17.667 146.775C3.95844 127.711 -2.78695 102.629 1.07993 79.3017C2.09837 73.1584 3.62983 67.1597 5.80909 61.3216C6.25582 60.1241 6.71087 58.5901 7.39563 57.5112L7.95503 57.3663L8.07711 57.125C8.24305 56.829 8.35718 56.7319 8.63036 56.5497L8.78941 56.5547C9.1191 56.5275 9.35424 56.3453 9.62959 56.1808C10.0738 56.1692 10.2825 56.1892 10.6709 56.4098C10.6966 56.9536 10.7143 57.4703 10.8484 58.0014L10.7415 58.2373L9.94697 60.6296C10.264 60.4727 10.3959 59.9281 10.5078 59.5941L10.5817 59.3622L11.2194 58.7782C9.11041 64.2671 7.22571 69.4749 5.96525 75.2547C1.16942 97.2448 5.83626 121.096 17.9709 139.98C26.5717 153.364 38.4607 164.681 52.704 171.895C59.766 175.472 67.2991 177.987 75.0332 179.652C97.658 184.521 121.939 180.37 141.452 167.79C161.423 154.914 175.908 134.821 180.879 111.511C184.241 95.7441 183.161 78.8346 177.64 63.6809C175.153 56.8525 171.733 50.4361 167.781 44.3516Z" fill="black"/>
<path d="M23.3519 48.2583C24.4008 46.4189 25.7848 44.7233 27.0851 43.0578C30.552 38.6159 34.4196 34.4704 38.6422 30.7365C54.7054 16.5342 76.3056 8.54211 97.799 9.81959C114.399 10.8061 130.134 16.6523 143.396 26.6621C146.021 28.6428 148.824 30.6985 151.016 33.1647C154.292 36.0925 157.192 39.5572 159.84 43.0578C169.44 55.7519 175.762 71.286 176.649 87.2803C177.257 98.2342 176.362 109.267 172.881 119.731C169.34 130.376 162.861 140.504 155.391 148.825C140.813 165.065 119.815 174.963 98.0559 176.091C75.4745 177.262 53.9895 169.631 37.2191 154.441C21.432 140.142 11.1074 119.948 10.0803 98.5455C9.79192 92.5323 9.81112 86.6637 10.6716 80.6904C11.8922 72.2161 14.7863 63.6088 18.7394 56.0276C20.0191 53.5733 21.4791 50.5926 23.1968 48.4257L23.3519 48.2583ZM91.9702 68.3075C84.4093 69.3444 77.9744 72.6313 73.3119 78.835C69.5273 83.8707 67.1578 90.5592 68.1291 96.9126C69.2262 104.086 73.1742 110.429 79.0859 114.664C84.0205 118.199 89.6225 119.356 95.5871 118.965C103.314 117.758 109.595 114.909 114.339 108.424C118.367 102.918 119.877 96.8187 118.797 90.0752C117.728 83.3921 113.886 77.1764 108.355 73.2334C103.634 69.8683 97.7624 68.0238 91.9702 68.3075ZM23.3519 48.2583L23.6627 48.3036L23.316 48.855L23.2164 48.9905L23.307 49.3528L23.7598 49.0811L24.3939 49.3528C24.637 49.2369 24.7993 49.1264 25.0732 49.1264L24.892 50.0322H25.0732L25.3902 49.9869L25.2996 50.168L25.3902 50.3492L25.2996 50.5303L25.2544 51.0285C25.0631 51.5698 24.892 51.6114 24.9373 52.2513C25.0692 52.0556 25.192 51.9024 25.3601 51.7332L25.5261 51.5719L25.5279 51.3002C25.8648 50.976 26.0576 50.6405 26.2507 50.2151C26.4054 49.8746 26.2554 50.0811 26.5173 49.7858C26.7137 49.5641 26.7257 49.5793 26.8847 49.3075L27.0213 49.0358L27.1565 48.8547L27.1583 48.5829L27.6093 48.2206C27.4637 47.8808 27.459 47.8029 27.4735 47.4507L28.2742 46.8359L28.5144 46.6797L28.5151 46.4091L28.8767 46.0921L28.9227 45.8649C29.247 45.5113 29.3238 45.3468 29.7824 45.2309L29.7832 44.9599C30.1886 44.9573 30.3668 44.7363 30.6889 44.507L30.9607 44.7769L31.2317 44.4617L31.2324 44.2353L31.64 44.0088L31.9063 44.2969L31.9577 44.5059C32.0483 44.8635 32.066 45.0548 31.9577 45.4135L31.8682 45.6845L32.4037 46.4174L33.5609 41.7071C33.9573 40.5275 35.9547 38.4496 37.093 37.8826L37.4821 38.3478L37.5216 38.133C37.5796 37.8431 37.5426 37.9554 37.6633 37.712L39.6578 37.7138L40.4712 38.8007L40.4146 39.1597C40.348 39.6322 40.44 39.9423 40.5773 40.3916L40.7537 39.163C41.4588 38.8185 43.0399 39.0503 43.8373 39.0641C50.3878 39.1779 56.1296 40.0543 62.3765 42.0738C62.3312 41.8528 62.2323 41.7122 62.1189 41.5198L61.7113 41.5633L62.117 41.1557L62.0736 40.7481C62.4435 40.801 62.3185 40.7597 62.6369 40.8858L62.8435 40.9727L63.3851 40.4311L64.021 40.6104L64.3825 40.3398L64.472 40.0688C64.764 39.9242 64.9264 39.8231 65.2658 39.8557L65.4702 39.8858L65.7401 39.7065C65.922 39.9249 65.9988 39.9804 66.2781 40.0735C66.9111 40.2843 67.4462 40.6184 68.0516 40.8832L68.278 40.9727L68.4592 41.1539L69.2809 41.1502C67.7357 40.0782 65.843 39.3141 64.0923 38.6315C56.1531 35.5367 48.0314 35.5041 39.6523 35.5023C40.5585 34.4675 41.5081 33.464 42.6758 32.718C43.9946 31.8753 45.9311 31.751 47.4589 31.5876C52.1446 31.0869 56.8201 31.126 61.4848 31.8314C63.8644 32.1912 66.1586 32.8194 68.5019 33.3462C68.3161 33.118 68.1581 32.8941 68.0063 32.6415L68.278 32.618L68.8215 31.939L69.7273 31.956L70.0896 31.464L69.7291 31.0112L69.9084 30.6507H70.2707L70.3718 30.2619C71.3272 30.5387 73.2757 31.0155 73.8985 31.7756L73.7144 31.9169C73.9709 32.0872 74.1557 32.1658 74.4372 32.2774L74.6184 32.1133L74.9825 32.2792L74.9963 32.4886C75.0274 32.8085 75.0049 32.689 75.1636 33.0038L75.4336 33.185L75.4343 33.456L75.6723 33.5295C76.2063 33.7074 75.7611 33.5484 76.2321 33.7839C76.6078 33.9712 76.931 33.9321 77.3357 33.9078L77.9168 33.4306C79.5765 34.1067 81.1156 35.0523 82.5956 36.0544L83.6289 34.494L83.9129 34.3933C84.2843 34.2523 84.1528 34.3367 84.4006 34.0889L84.5836 34.1813C84.6086 34.4675 84.6676 34.598 84.5365 34.8606L84.7629 35.1758C85.0296 34.9092 85.1227 34.9393 85.1252 34.5436L85.3969 34.6342L85.4875 34.9983L85.3082 35.2682L85.3977 35.6298L85.6687 35.7229L85.4893 35.9928L85.4875 36.3551L85.3082 36.5363C85.3078 36.7432 85.3777 37.3772 85.3064 37.5345C85.1111 37.9656 84.6538 37.9862 85.127 38.6196L85.6234 39.0717C86.0157 39.4239 86.0592 39.5286 86.6081 39.5981C86.2223 39.1054 85.7629 38.6732 85.3234 38.2279C87.5574 34.7567 90.2029 30.9804 93.4582 28.3939L94.3303 29.1906L94.8234 29.1982C95.16 28.9725 95.1614 29.0203 95.5415 29.0203L95.8585 28.7015C96.1994 28.4924 96.4755 28.3584 96.8095 28.1145L97.1265 28.2946L97.4436 27.841H97.7153L97.3077 27.3428L97.4592 27.083L96.6646 26.12C98.0214 25.0168 99.583 24.1237 101.088 23.2401L108.306 31.8691L108.57 31.8387L108.539 31.6905L108.403 31.3735L108.764 31.2822L109.037 31.2829L109.354 31.147C109.687 31.2894 109.617 31.218 109.827 31.4264L109.943 31.5528L110.215 31.2829L110.487 31.5528L110.758 31.2829L110.985 31.4633L111.166 31.3282L111.483 31.5528L111.97 31.1246L112.389 31.6329L113.136 31.5745L113.413 31.5278C113.959 31.4293 114.307 31.2854 114.789 31.0101L115.017 31.0112C115.029 31.2789 114.982 31.7687 115.062 32.0075C115.267 32.623 115.932 32.3604 115.243 33.1201L115.017 33.3661L114.925 33.5491C114.633 33.9049 114.272 34.0686 113.839 34.1821L113.745 34.453L113.476 34.2737C113.213 34.4838 113.061 34.5433 112.932 34.8614L112.615 34.9067L112.389 35.0425L111.936 35.1795L111.755 35.4494L111.484 35.4505C111.173 35.5189 110.871 35.7577 110.668 35.9928L110.397 35.9936L110.388 36.4504C117.602 32.9817 124.886 31.2209 132.885 31.0756C135.651 31.0253 138.503 31.1333 141.248 31.4709C142.193 31.5872 143.331 31.6593 144.158 32.1709C145.573 33.0455 146.957 34.7284 148.166 35.8994L148.066 36.1715L148.529 36.3551L148.619 35.9023C148.367 35.6458 148.099 35.4077 147.95 35.0733L147.893 34.9067L147.623 34.8172L147.893 34.6795V34.4078L147.621 34.2719L147.849 33.9994H148.121L148.301 33.819C148.44 33.6111 148.407 33.5078 148.301 33.2756L148.166 33.0944C148.396 32.7111 148.388 32.6604 148.799 32.5057L148.889 32.2792L149.027 32.3691L149.163 32.2792V31.8709C149.729 32.2104 150.262 32.8633 150.748 33.3208L151.016 33.1647C148.824 30.6985 146.021 28.6428 143.396 26.6621C130.134 16.6523 114.399 10.8061 97.799 9.81959C76.3056 8.54211 54.7054 16.5342 38.6422 30.7365C34.4196 34.4704 30.552 38.6159 27.0851 43.0578C25.7848 44.7233 24.4008 46.4189 23.3519 48.2583ZM65.7738 104.308C56.6683 106.72 49.277 111.798 44.4543 120.013C40.7508 126.322 39.1281 133.853 39.3183 141.124C39.3658 142.934 39.7201 144.705 39.7784 146.491C43.0461 147.365 46.3238 148.202 49.6947 148.574C56.372 149.311 62.9261 148.084 68.7581 144.735C76.0564 140.545 80.2384 134.456 82.9467 126.614L84.4937 121.504L78.8508 118.973C73.9662 128.687 67.9853 136.632 57.2882 140.176C53.4366 141.453 49.6462 141.838 45.6072 141.795C46.1177 139.279 46.5792 136.735 47.3611 134.285C49.9614 126.143 55.0724 118.356 62.2558 113.596L69.241 109.691C68.4371 108.47 67.786 107.165 67.1248 105.863C66.8306 105.284 66.6306 104.472 66.0136 104.244L65.7738 104.308ZM135.708 39.6891C126.172 40.6945 116.429 44.0683 110.215 51.7531C106.684 56.1207 104.885 60.998 103.889 66.4717L109.541 69.5821C110.462 67.1779 111.365 64.7961 112.657 62.5592C116.048 56.6873 121.375 52.3487 127.519 49.6039C131.686 47.7424 136 46.679 140.428 45.6653C139.987 49.4648 139.619 53.3458 138.431 57.0051C135.685 65.7022 130.1 73.6664 121.898 77.9658L118.859 79.4937C120.009 81.494 120.883 83.5682 121.596 85.7601C124.441 84.8228 127.19 83.9225 129.855 82.5269C135.13 79.7658 139.313 75.2279 141.987 69.943C146.8 60.4317 147.873 50.3263 147.089 39.8384C145.011 39.5597 142.91 39.5547 140.816 39.5409C139.168 39.53 137.343 39.471 135.708 39.6891ZM40.5773 40.3916C40.503 42.3998 40.2222 44.3994 40.132 46.4091C39.7806 54.2247 40.5458 61.4328 44.2167 68.463C45.6764 71.2589 47.4097 73.9993 49.5668 76.3145C54.1239 81.2045 59.2085 83.8576 65.46 85.9818L68.1929 79.8766C59.0933 75.9366 52.7138 67.5652 49.1291 58.5365C47.4846 54.3939 46.5622 50.0644 45.8144 45.6845C55.3122 46.3109 64.259 50.8629 70.5149 58.0054C73.5586 61.4803 75.631 65.5 77.2657 69.7926C79.1436 68.5735 80.9942 67.5478 83.0615 66.6714C81.0185 57.9923 76.9643 50.2582 69.1508 45.4269L62.3765 42.0738C56.1296 40.0543 50.3878 39.1779 43.8373 39.0641C43.0399 39.0503 41.4588 38.8185 40.7537 39.163L40.5773 40.3916ZM121.114 104.27L117.791 110.309C128.093 114.353 133.539 119.845 138 129.986C139.661 133.763 140.952 137.996 141.606 142.071C131.656 141.728 122.099 138.727 115.158 131.326C112.823 128.836 110.813 126.208 109.768 122.913C109.31 121.466 109.109 119.917 108.859 118.425C107.523 119.297 106.131 119.991 104.638 120.555C104.405 122.964 104.363 125.392 104.903 127.766L104.957 128.01L104.993 128.156C106.835 135.094 112.135 141.094 118.276 144.651C122.937 147.351 128.097 148.889 133.493 149.009C138.246 149.115 143.244 148.094 147.865 147.028C148.583 135.532 146.33 123.94 138.504 115.048C135.053 111.127 130.916 108.209 126.091 106.202C124.452 105.52 122.712 105.036 121.114 104.27ZM110.388 36.4504C107.533 38.288 104.885 40.018 102.541 42.5263C98.3269 47.0355 95.7161 52.6784 95.2241 58.8459C95.0726 60.743 95.2658 62.7617 95.3252 64.6667L100.279 65.1895C101.878 56.7449 106.04 49.2112 112.972 44.0059C122.683 36.7146 136.192 34.4987 148.066 36.1715L148.166 35.8994C146.957 34.7284 145.573 33.0455 144.158 32.1709C143.331 31.6593 142.193 31.5872 141.248 31.4709C138.503 31.1333 135.651 31.0253 132.885 31.0756C124.886 31.2209 117.602 32.9817 110.388 36.4504ZM39.6523 35.5023C48.0314 35.5041 56.1531 35.5367 64.0923 38.6315C65.843 39.3141 67.7357 40.0782 69.2809 41.1502C69.9229 41.3408 70.5805 41.8013 71.1478 42.1614C79.5395 47.4895 84.3633 55.9323 86.5154 65.4323C88.1265 64.9903 89.8497 64.7106 91.5148 64.5751C91.5449 62.7067 91.6844 60.7567 91.455 58.9014C91.0319 55.4769 90.3301 52.2734 88.8624 49.1264C85.9473 42.8766 80.8754 38.6185 74.7118 35.7392C72.6829 34.7914 70.5972 34.1176 68.5019 33.3462C66.1586 32.8194 63.8644 32.1912 61.4848 31.8314C56.8201 31.126 52.1446 31.0869 47.4589 31.5876C45.9311 31.751 43.9946 31.8753 42.6758 32.718C41.5081 33.464 40.5585 34.4675 39.6523 35.5023ZM32.4037 46.4174L31.64 51.3325C30.3853 62.8487 33.3464 74.0997 40.6715 83.1551C43.7272 86.9329 47.7513 90.0324 52.1297 92.1233C53.1141 92.5932 54.3347 93.2098 55.4307 93.3196C58.2172 93.5986 61.0972 93.0439 63.9112 93.3555L64.1601 93.3844L64.5746 89.652C60.0305 88.0155 55.8296 86.343 51.9312 83.4243C44.1362 77.588 38.6767 68.213 37.0977 58.6307C36.484 54.9059 36.4228 51.1778 36.4793 47.4138C36.5086 45.4476 36.705 43.5284 36.9166 41.5756C37.0256 40.5662 37.3343 39.18 37.1564 38.1928L37.093 37.8826C35.9547 38.4496 33.9573 40.5275 33.5609 41.7071L32.4037 46.4174ZM150.966 38.9924C151.106 42.1035 151.345 45.2287 151.226 48.3434C150.816 59.0499 147.745 70.7683 140.397 78.8716C137.12 82.4845 133.39 85.2453 128.868 87.1159C126.786 87.9774 124.621 88.5752 122.492 89.2995L122.733 93.9902L126.599 93.8967C129.219 93.6895 131.743 93.4417 134.257 92.6167C138.869 91.1026 142.637 87.6455 145.725 84.0181C153.853 74.4703 156.176 61.786 155.137 49.5909C154.984 47.7938 154.79 46.0167 154.505 44.2353C154.366 43.3665 154.327 42.5712 153.737 41.8803L153.549 41.6517L150.966 38.9924ZM55.7557 96.9198C49.1784 97.8716 43.2196 102.386 39.335 107.636C33.904 114.977 31.5353 123.955 31.8084 133.027C31.9215 136.787 32.4421 140.53 32.67 144.282L36.4583 148.884C36.0434 147.106 35.8311 145.374 35.7166 143.553C34.8464 132.239 37.814 121.28 45.2532 112.563C48.5839 108.66 52.775 105.453 57.4201 103.276C59.9226 102.104 62.5529 101.288 65.1894 100.482L64.5999 96.8901L55.7557 96.9198ZM133.362 96.5401C129.794 97.4144 126.141 97.9201 122.455 97.6589L122.043 101.132C131.856 103.338 139.528 108.731 144.921 117.229C149.14 123.877 151.732 131.959 151.713 139.876L151.723 147.336C152.644 146.333 153.778 145.231 154.392 144.003C155.073 142.64 155.28 141.025 155.45 139.526C155.734 137.02 155.822 134.546 155.719 132.026C155.27 121.047 150.443 109.954 142.318 102.496C139.652 100.049 136.752 97.8734 133.362 96.5401ZM88.0896 122.331C87.0657 125.961 86.044 129.623 84.4774 133.066C81.488 139.637 76.5063 144.714 70.2229 148.252C60.2758 153.852 49.4882 153.018 38.814 150.363L43.2605 154.894C48.1321 155.881 53.0221 156.852 58.0121 156.924C64.7742 157.021 72.1424 155.056 77.8146 151.328C84.8354 146.714 90.0355 139.693 91.6981 131.38C92.2485 128.628 92.3119 125.79 92.2499 122.995L88.0896 122.331ZM100.735 121.919C99.0203 122.314 97.2769 122.719 95.5172 122.835C95.5364 125.119 95.6161 127.43 95.5306 129.712C95.4954 130.662 95.1201 131.829 95.2085 132.728C95.315 133.813 95.9559 135.045 96.3842 136.046C98.0464 139.927 100.367 143.438 103.387 146.398C110.364 153.233 119.938 156.89 129.677 156.811C131.578 156.795 133.536 156.697 135.423 156.464C136.688 156.308 137.943 156.073 139.199 155.856C139.437 155.815 140.096 155.622 140.286 155.673C140.564 155.748 140.96 156.106 141.192 156.287L141.927 155.785L147.559 150.898C137.531 153.535 126.479 153.785 117.284 148.438C110.198 144.318 103.447 137.53 101.364 129.398C100.796 127.179 100.572 124.756 100.822 122.477C100.858 122.15 100.859 122.3 100.808 121.971L100.735 121.919ZM115.303 113.287L112.345 116.031C112.523 117.485 112.606 118.987 112.956 120.411C114.065 124.915 117.488 128.82 121.052 131.619C124.912 134.651 129.565 136.414 134.352 137.343L136.867 137.785C133.529 128.191 129.535 119.894 119.925 115.24C118.513 114.557 116.836 113.635 115.303 113.287ZM71.5442 112.773C68.9103 113.98 66.4082 115.239 64.0369 116.926C57.6531 121.466 53.4478 127.98 50.7968 135.264L49.9059 137.939L53.7942 137.348C62.8616 134.817 68.9436 129.239 73.5304 121.127L75.8187 116.669C75.0035 115.96 74.1655 115.255 73.4025 114.49C72.8626 113.948 72.2529 113.067 71.5442 112.773ZM135.966 50.5169C127.629 52.8458 120.068 57.0047 115.657 64.7395C114.413 66.9217 113.148 69.6991 112.797 72.2067C113.729 72.9276 114.477 73.778 115.26 74.6529L116.721 76.4554C119.543 75.116 122.251 73.7327 124.716 71.7922C129.013 68.4093 132.434 63.0186 134.249 57.8873C135.059 55.5975 135.801 53.0502 136.154 50.6448L135.966 50.5169ZM50.5073 50.0477C52.9696 59.8629 57.531 69.5531 66.5571 74.9558L70.2682 76.8956L71.9924 74.6946L74.3887 72.2704C71.2576 63.4324 66.0408 56.8123 57.4404 52.7103L50.5073 50.0477ZM85.3234 38.2279C85.7629 38.6732 86.2223 39.1054 86.6081 39.5981C87.0911 39.8996 87.578 40.6582 87.9468 41.1024C90.2435 43.8693 92.0474 46.9066 93.368 50.2499C95.3889 45.6222 97.9479 42.0267 101.489 38.4446C99.3326 34.9893 97.2128 32.0745 94.3303 29.1906L93.4582 28.3939C90.2029 30.9804 87.5574 34.7567 85.3234 38.2279ZM38.4662 86.1717C34.5993 88.4274 31.1491 90.9128 28.0499 94.1688C29.2564 94.984 30.2255 96.1372 31.3269 97.0897C33.2225 98.7284 35.3134 100.07 37.484 101.308C37.9082 101.55 38.6343 102.072 39.1125 102.095C42.4526 99.1545 45.5362 96.7278 49.6179 94.8612C46.6205 93.1964 43.9228 91.5486 41.4142 89.1886C40.3904 88.2256 39.511 87.1064 38.4662 86.1717ZM148.719 86.0894C146.049 89.6734 142.424 92.6403 138.567 94.8503C140.367 95.7594 142.161 97.3441 143.672 98.6944C144.646 99.5646 145.598 100.465 146.522 101.387C146.639 101.504 147.146 102.098 147.26 102.138C147.375 102.179 147.504 102.141 147.623 102.117L147.985 101.932C151.82 99.8773 155.46 97.1238 158.493 94.004C156.595 91.649 154.396 89.8186 151.948 88.076C150.961 87.3727 149.852 86.543 148.719 86.0894ZM28.2481 47.7232C26.4583 50.6169 24.621 53.494 23.0305 56.504C18.9644 64.1983 16.1413 72.1429 14.6903 80.7324C14.1599 83.8729 13.6479 87.309 13.8878 90.5019L14.2265 90.2353C15.5671 88.2843 16.8746 86.1749 18.4923 84.4417C17.3297 79.5738 18.643 74.0924 21.2194 69.8672C22.9037 67.105 25.2471 64.0109 28.047 62.3125C27.7274 59.8876 27.5398 57.4797 27.6271 55.0334C27.6746 53.6969 27.7945 52.3487 27.9792 51.0249C28.1176 50.034 28.4651 48.6873 28.2481 47.7232ZM13.9483 96.9553C14.1117 109.705 18.5245 122.821 25.0395 133.712C26.1185 135.516 27.2184 137.617 28.6434 139.164L28.7868 139.123C28.1905 135.036 28.1061 130.929 28.1923 126.807C22.4045 120.807 18.5966 113.637 18.7068 105.193L18.8448 103.097C17.8398 101.976 16.905 100.802 16.0225 99.5813C15.4866 98.84 14.7323 97.3904 13.9483 96.9553ZM158.413 47.3935C158.864 52.3389 158.994 57.0156 158.535 61.9621C163.834 65.8631 167.961 70.5549 168.951 77.2514C169.323 79.7679 169.031 82.5961 168.53 85.0848C169.979 87.0104 171.529 88.8546 172.707 90.9668L172.868 91.1537C173.024 90.4998 172.907 89.7096 172.874 89.0364C172.809 87.714 172.716 86.4032 172.592 85.0851C171.442 72.8664 167.262 61.5339 160.873 51.0988L158.413 47.3935ZM172.983 97.1767L168.034 103.433C169.29 108.324 168.914 112.641 166.365 117C164.344 120.454 161.587 123.31 158.887 126.226L159.454 137.04L159.404 137.529C160.561 136.229 161.46 134.398 162.369 132.909C168.218 123.327 171.746 112.834 172.711 101.625C172.828 100.271 173.155 98.6328 173.009 97.2934L172.983 97.1767ZM93.2934 138.845C91.3887 142.697 89.1834 146.123 86.3226 149.336C88.3196 152.342 90.6163 155.574 93.4158 157.879L93.6687 157.86C96.3215 155.253 98.8826 152.573 100.793 149.355C99.0083 147.383 97.3244 145.366 95.8889 143.119C95.0049 141.735 94.2491 140.167 93.2934 138.845ZM50.5874 159.918C52.5569 161.509 55.1271 162.751 57.394 163.858C64.1528 167.158 70.9787 169.457 78.332 170.993C82.2637 171.814 86.5976 172.499 90.6319 172.31C90.5051 171.849 89.9558 171.561 89.5845 171.262L85.1118 167.919C81.4029 169.371 77.7201 169.852 73.9709 168.191C70.1153 166.482 66.4694 163.453 63.7931 160.213C59.2425 160.801 55.1173 160.483 50.5874 159.918ZM123.41 160.202C120.117 164.261 114.724 168.678 109.369 169.254C106.984 169.51 104.334 168.808 102.096 168.034L95.9882 172.454L106.549 171.309C117.009 169.407 126.941 166.14 135.763 160.056C133.045 160.651 130.546 160.733 127.775 160.648C126.331 160.604 124.815 160.556 123.41 160.202ZM160.942 96.997C157.468 100.071 153.85 102.85 149.689 104.943C150.95 106.513 152.103 108.213 153.058 109.987C157.15 107.966 160.798 105.604 164.142 102.486C163.529 101.095 162.837 99.7799 162.066 98.4708C161.781 97.9868 161.425 97.3035 160.942 96.997ZM32.8171 77.855C29.0448 80.1821 25.5442 82.7881 22.2733 85.7822L25.7935 91.3512C29.0089 88.0687 32.1867 85.6547 36.1786 83.3812L32.8171 77.855ZM25.8822 96.9463C24.7265 98.6582 23.487 100.418 22.6171 102.293C25.8554 105.204 29.1814 108.21 33.0439 110.271L33.2493 110.173L36.7818 104.902C33.8957 103.515 31.3117 101.754 28.9028 99.6407C27.9278 98.7853 26.9452 97.664 25.8822 96.9463ZM154.173 77.7213L151.192 82.9435C153.547 84.4638 155.834 86.2126 157.94 88.0611C158.978 88.9723 159.948 90.1817 161.068 90.9574L161.154 90.9092C162.323 89.2908 163.367 87.689 164.244 85.8887C161.861 82.7522 157.651 79.5814 154.173 77.7213ZM164.886 106.667L154.883 113.214L157.498 120.097L158.057 122.048C161.471 118.033 165.512 113.496 165.027 107.865L164.886 106.667ZM103.509 151.555C101.838 154.958 99.1384 157.73 96.4121 160.311L101.338 163.842L101.804 163.573C103.622 162.001 105.457 160.416 107.095 158.654C107.921 157.767 108.588 156.778 109.372 155.863C107.313 154.612 105.303 153.171 103.509 151.555ZM158.299 65.9681L155.644 74.3808C158.843 75.9532 161.715 78.2818 164.389 80.6143L165.389 81.5501C165.499 80.3371 165.639 79.106 165.544 77.888C165.288 74.6192 163.678 71.89 161.622 69.4187L158.299 65.9681ZM83.7173 151.742L78.124 155.718C80.1283 158.751 82.8554 161.341 85.4621 163.852C86.0846 163.694 86.6288 163.212 87.1487 162.843C88.291 162.032 89.4479 161.23 90.5609 160.38C89.3428 159.095 88.1091 157.819 87.0458 156.399C86.2849 155.383 85.5712 154.332 84.8466 153.292C84.5154 152.816 84.1426 152.121 83.7173 151.742ZM101.088 23.2401C99.583 24.1237 98.0214 25.0168 96.6646 26.12L97.4592 27.083C100.095 29.6645 102.319 32.9777 104.25 36.1124L108.946 33.0038L108.817 32.789L108.306 31.8691L101.088 23.2401ZM28.6502 66.3819C24.529 70.4723 21.6918 75.2536 21.6273 81.1933V81.5219L23.3396 80.0509C25.8695 78.0119 28.4387 76.2453 31.2672 74.6402L28.6502 66.3819ZM21.928 106.383C22.3302 112.39 25.196 117.597 28.8317 122.267L29.3633 120.183L31.5867 113.711C28.0829 111.463 24.9928 109.198 21.928 106.383ZM112.396 157.282C110.263 160.243 108.057 162.926 105.453 165.486C107.829 165.87 109.756 165.987 111.969 164.862C114.654 163.359 117.255 161.604 119.535 159.528L112.396 157.282ZM74.6847 157.211C72.4594 158.258 70.3327 158.997 67.9607 159.635C70.3479 161.757 72.9536 163.777 75.8248 165.194C77.911 166.046 79.6729 165.866 81.8358 165.427C79.1004 162.841 76.9505 160.205 74.6847 157.211ZM19.7846 88.4683L16.1514 93.5087L20.3046 99.5538L23.5211 93.8062C22.8302 92.9986 22.1628 92.1896 21.5933 91.29C21.0563 90.4422 20.5205 89.1031 19.7846 88.4683ZM166.962 88.9948L163.494 93.9848C163.877 94.5224 166.835 99.4679 166.905 99.4994L170.611 94.0812L166.962 88.9948ZM93.5325 162.775L88.5678 166.271L93.5557 169.675L98.2881 166.245C97.1852 165.427 96.0911 164.601 95.006 163.761C94.5589 163.414 94.0738 162.92 93.5325 162.775Z" fill="black"/>
<path d="M23.3519 48.2583C24.4007 46.4189 25.7848 44.7233 27.0851 43.0578C30.552 38.6159 34.4196 34.4704 38.6422 30.7365C54.7054 16.5342 76.3056 8.54211 97.799 9.81959C114.399 10.8061 130.134 16.6523 143.396 26.6621C146.021 28.6428 148.824 30.6985 151.016 33.1647L150.748 33.3208C150.262 32.8633 149.729 32.2104 149.163 31.8709V32.2792L149.027 32.3691L148.889 32.2792L148.799 32.5057C148.388 32.6604 148.396 32.7111 148.166 33.0944L148.301 33.2756C148.407 33.5078 148.44 33.6111 148.301 33.819L148.121 33.9994H147.849L147.621 34.2719L147.893 34.4078V34.6795L147.623 34.8172L147.893 34.9067L147.95 35.0733C148.099 35.4077 148.367 35.6458 148.619 35.9023L148.529 36.3551L148.066 36.1715L148.166 35.8994C146.957 34.7284 145.573 33.0455 144.158 32.1709C143.331 31.6593 142.193 31.5872 141.248 31.4709C138.503 31.1333 135.651 31.0253 132.885 31.0756C124.886 31.2209 117.602 32.9817 110.388 36.4504L110.397 35.9936L110.668 35.9928C110.871 35.7577 111.173 35.5189 111.484 35.4505L111.755 35.4494L111.936 35.1795L112.389 35.0425L112.615 34.9067L112.932 34.8614C113.061 34.5433 113.212 34.4838 113.476 34.2737L113.745 34.453L113.839 34.1821C114.272 34.0686 114.633 33.9049 114.925 33.5491L115.017 33.3661L115.243 33.1201C115.932 32.3604 115.267 32.623 115.062 32.0075C114.982 31.7687 115.029 31.2789 115.017 31.0112L114.789 31.0101C114.307 31.2854 113.959 31.4293 113.413 31.5278L113.136 31.5745L112.389 31.6329L111.97 31.1246L111.483 31.5528L111.166 31.3282L110.985 31.4633L110.758 31.2829L110.487 31.5528L110.215 31.2829L109.943 31.5528L109.827 31.4264C109.617 31.218 109.687 31.2894 109.354 31.147L109.037 31.2829L108.764 31.2822L108.403 31.3735L108.539 31.6905L108.57 31.8387L108.306 31.8691L101.088 23.2401C99.583 24.1237 98.0214 25.0168 96.6646 26.12L97.4591 27.083L97.3077 27.3428L97.7153 27.841H97.4435L97.1265 28.2946L96.8095 28.1145C96.4755 28.3584 96.1994 28.4924 95.8585 28.7015L95.5414 29.0203C95.1614 29.0203 95.1599 28.9725 94.8234 29.1982L94.3303 29.1906L93.4582 28.3939C90.2029 30.9804 87.5573 34.7567 85.3234 38.2279C85.7628 38.6732 86.2222 39.1054 86.6081 39.5981C86.0592 39.5286 86.0157 39.4239 85.6234 39.0717L85.127 38.6196C84.6538 37.9862 85.1111 37.9656 85.3063 37.5345C85.3777 37.3772 85.3078 36.7432 85.3081 36.5363L85.4875 36.3551L85.4893 35.9928L85.6686 35.7229L85.3976 35.6298L85.3081 35.2682L85.4875 34.9983L85.3969 34.6342L85.1252 34.5436C85.1226 34.9393 85.0295 34.9092 84.7629 35.1758L84.5364 34.8606C84.6676 34.598 84.6085 34.4675 84.5835 34.1813L84.4006 34.0889C84.1528 34.3367 84.2843 34.2523 83.9129 34.3933L83.6289 34.494L82.5956 36.0544C81.1156 35.0523 79.5765 34.1067 77.9168 33.4306L77.3356 33.9078C76.9309 33.9321 76.6078 33.9712 76.2321 33.7839C75.7611 33.5484 76.2063 33.7074 75.6723 33.5295L75.4343 33.456L75.4335 33.185L75.1636 33.0038C75.0049 32.689 75.0274 32.8085 74.9962 32.4886L74.9825 32.2792L74.6183 32.1133L74.4372 32.2774C74.1557 32.1658 73.9709 32.0872 73.7144 31.9169L73.8984 31.7756C73.2756 31.0155 71.3272 30.5387 70.3718 30.2619L70.2707 30.6507H69.9084L69.729 31.0112L70.0895 31.464L69.7272 31.956L68.8215 31.939L68.278 32.618L68.0063 32.6415C68.1581 32.8941 68.3161 33.118 68.5019 33.3462C66.1585 32.8194 63.8644 32.1912 61.4848 31.8314C56.8201 31.126 52.1446 31.0869 47.4589 31.5876C45.9311 31.751 43.9945 31.8753 42.6758 32.718C41.508 33.464 40.5584 34.4675 39.6523 35.5023C48.0313 35.5041 56.1531 35.5367 64.0923 38.6315C65.843 39.3141 67.7356 40.0782 69.2809 41.1502L68.4592 41.1539L68.278 40.9727L68.0516 40.8832C67.4462 40.6184 66.911 40.2843 66.2781 40.0735C65.9988 39.9804 65.9219 39.9249 65.7401 39.7065L65.4702 39.8858L65.2658 39.8557C64.9263 39.8231 64.764 39.9242 64.472 40.0688L64.3825 40.3398L64.0209 40.6104L63.3851 40.4311L62.8434 40.9727L62.6369 40.8858C62.3185 40.7597 62.4435 40.801 62.0735 40.7481L62.117 41.1557L61.7112 41.5633L62.1188 41.5198C62.2322 41.7122 62.3311 41.8528 62.3764 42.0738C56.1296 40.0543 50.3878 39.1779 43.8373 39.0641C43.0399 39.0503 41.4588 38.8185 40.7537 39.163L40.5773 40.3916C40.44 39.9423 40.3479 39.6322 40.4146 39.1597L40.4711 38.8007L39.6578 37.7138L37.6633 37.712C37.5426 37.9554 37.5796 37.8431 37.5216 38.133L37.4821 38.3478L37.093 37.8826C35.9546 38.4496 33.9573 40.5275 33.5609 41.7071L32.4037 46.4174L31.8682 45.6845L31.9577 45.4135C32.066 45.0548 32.0483 44.8635 31.9577 44.5059L31.9062 44.2969L31.64 44.0088L31.2324 44.2353L31.2316 44.4617L30.9606 44.7769L30.6889 44.507C30.3668 44.7363 30.1886 44.9573 29.7831 44.9599L29.7824 45.2309C29.3237 45.3468 29.2469 45.5113 28.9227 45.8649L28.8767 46.0921L28.5151 46.4091L28.5143 46.6797L28.2741 46.8359L27.4734 47.4507C27.459 47.8029 27.4637 47.8808 27.6093 48.2206L27.1582 48.5829L27.1564 48.8547L27.0213 49.0358L26.8847 49.3075C26.7257 49.5793 26.7137 49.5641 26.5173 49.7858C26.2554 50.0811 26.4054 49.8746 26.2507 50.2151C26.0576 50.6405 25.8648 50.976 25.5279 51.3002L25.5261 51.5719L25.3601 51.7332C25.192 51.9024 25.0692 52.0556 24.9373 52.2513C24.892 51.6114 25.063 51.5698 25.2543 51.0285L25.2996 50.5303L25.3902 50.3492L25.2996 50.168L25.3902 49.9869L25.0732 50.0322H24.892L25.0732 49.1264C24.7993 49.1264 24.637 49.2369 24.3939 49.3528L23.7598 49.0811L23.3069 49.3528L23.2164 48.9905L23.316 48.855L23.6627 48.3036L23.3519 48.2583ZM90.8344 13.8481C78.4345 14.4614 66.4933 17.8088 55.5285 23.6035C53.4793 24.6864 50.7787 25.9527 49.1269 27.5903L48.9828 27.7504C49.5063 27.8765 50.0316 27.7885 50.5613 27.7406C54.2427 27.6914 57.7165 27.7881 61.371 28.2508C65.8948 22.9278 72.7543 18.9359 79.7812 18.3674C81.6398 18.2175 83.3811 18.4048 85.1897 18.8377C86.4273 17.7421 87.6584 16.636 88.9403 15.5918C89.4913 15.1429 90.6141 14.473 90.9507 13.8861L90.8344 13.8481ZM96.1266 13.8991L101.826 18.9761C107.061 17.3707 112.221 18.77 116.917 21.2655C120.33 23.0792 123.287 25.4737 126.122 28.0768L136.708 27.6638C137.043 27.6859 137.196 27.7794 137.471 27.5693C134.891 25.361 131.785 23.6614 128.752 22.1579C122.959 19.2852 117.054 17.3102 110.771 15.8179C106.038 14.694 101.002 13.8267 96.1266 13.8991ZM65.5299 29.0859L70.3718 30.2619C71.3272 30.5387 73.2756 31.0155 73.8984 31.7756L74.6183 31.7528C76.5125 28.0711 79.2029 25.0194 81.9184 21.9434C75.3397 22.1861 70.4196 24.7411 65.5299 29.0859ZM85.6596 23.1267C82.8485 26.5345 80.1265 29.5507 77.9168 33.4306C79.5765 34.1067 81.1156 35.0523 82.5956 36.0544L83.6289 34.494C85.3216 31.3999 88.0048 28.7073 90.4119 26.1512L85.6596 23.1267ZM104.947 21.8296C107.646 24.6755 110.032 27.6997 111.97 31.1246L112.389 31.6329L113.136 31.5745C113.941 30.3923 119.855 29.0888 121.538 28.6775C116.603 24.8194 111.284 22.1329 104.947 21.8296ZM93.6415 16.7534L88.7682 20.655L93.5716 23.7328L98.3026 20.7844L93.6415 16.7534Z" fill="black"/>
<path d="M75.3857 95.8119L76.5074 95.8506C77.2106 95.9543 77.8646 96.3278 78.2758 96.9122C78.7037 97.5201 78.8175 98.4802 78.6211 99.1893C78.3903 100.024 77.774 100.41 77.0574 100.805C76.7074 100.824 76.352 100.816 76.0056 100.756C75.2665 100.628 74.739 100.185 74.3205 99.5773C73.8608 98.9089 73.6354 97.9346 73.8713 97.1397C74.0934 96.3916 74.7459 96.1238 75.3857 95.8119Z" fill="black"/>
<path d="M111.131 86.5452L111.848 86.6525C112.598 86.8108 113.017 87.1984 113.401 87.851C113.926 88.7437 114.204 89.9302 113.9 90.9454C113.64 91.8102 113.085 91.9733 112.34 92.3276C112.009 92.2493 111.682 92.1569 111.371 92.0167C110.474 91.6131 109.738 90.7918 109.412 89.8665C109.2 89.2658 109.179 88.3401 109.467 87.7655C109.822 87.0582 110.439 86.8166 111.131 86.5452Z" fill="black"/>
<path d="M111.685 95.4199C112.078 95.4083 112.461 95.4112 112.843 95.517C113.483 95.6931 113.726 96.043 114.008 96.5883C114.051 97.4691 114.068 98.1882 113.757 99.0223C113.359 100.093 112.801 100.691 111.763 101.152C111.431 101.12 111.077 101.089 110.758 100.987C110.243 100.82 109.835 100.372 109.6 99.898C109.214 99.1197 109.294 98.2321 109.579 97.4368C109.967 96.355 110.704 95.9213 111.685 95.4199Z" fill="black"/>
<path d="M76.3694 86.7347C76.7161 86.7883 77.1212 86.847 77.4429 86.9872C77.8237 87.1532 78.1197 87.4463 78.2592 87.8383C78.5671 88.7017 78.2186 90.4244 77.8027 91.249C77.3498 92.1475 76.611 92.5671 75.689 92.8616C75.4748 92.8127 75.2723 92.7682 75.0712 92.6783C74.3789 92.3689 73.9619 91.8207 73.7169 91.115C73.4184 90.2541 73.5394 89.14 73.9774 88.3441C74.5521 87.3006 75.2586 87.0296 76.3694 86.7347Z" fill="black"/>
<path d="M91.6909 109.981C92.7792 109.903 95.5183 109.62 96.4954 110.028C96.9023 110.198 97.2606 110.485 97.4464 110.892C97.6381 111.313 97.7243 111.905 97.4856 112.32C97.1226 112.952 96.3052 113.025 95.6617 113.148L92.7535 113.169C91.6065 113.172 90.2746 113.385 89.4134 112.53C89.3652 111.811 89.3257 111.418 89.7268 110.802C90.3779 110.315 90.8978 110.141 91.6909 109.981Z" fill="black"/>
<path d="M103.493 76.9517C104.009 76.9267 104.683 76.8307 105.181 76.9872C105.963 77.2329 106.576 77.7738 106.948 78.5078C107.235 79.0734 107.273 80.0056 107.026 80.5896C106.656 81.4635 105.754 81.9182 104.935 82.2697C104.532 82.2758 104.12 82.2831 103.724 82.1968C102.868 82.011 102.183 81.4827 101.747 80.7244C101.422 80.157 101.352 79.5426 101.541 78.9165C101.844 77.9122 102.629 77.4387 103.493 76.9517Z" fill="black"/>
<path d="M81.8445 77.1086C82.3887 77.0862 82.9209 77.0597 83.4314 77.2814C84.0488 77.5492 84.5028 78.0162 84.7462 78.643C85.0459 79.4151 85.0422 80.0752 84.6839 80.8281C84.1651 81.919 83.3535 82.3755 82.2499 82.7494C81.85 82.7628 81.4333 82.7805 81.0427 82.6769C80.3772 82.5004 79.6823 81.9008 79.3725 81.29C79.0138 80.5828 79.0269 79.9183 79.3001 79.1908C79.699 78.1285 80.8884 77.5691 81.8445 77.1086Z" fill="black"/>
<path d="M103.327 104.492C103.841 104.434 104.471 104.38 104.978 104.498C105.58 104.638 106.094 105.063 106.408 105.583C106.899 106.397 106.998 107.415 106.717 108.322C106.391 109.375 105.468 109.913 104.57 110.412C104.125 110.456 103.637 110.524 103.193 110.455C102.53 110.351 101.855 109.884 101.496 109.326C101.022 108.591 100.918 107.848 101.128 107.005C101.452 105.704 102.25 105.141 103.327 104.492Z" fill="black"/>
<path d="M90.3004 73.3639C92.4119 73.1718 94.7252 73.2302 96.8215 73.5917C97.7215 73.7472 98.2754 73.924 98.8033 74.6689C98.8294 75.171 98.8667 75.4906 98.5852 75.9369C97.953 76.192 97.2599 76.2036 96.5867 76.2598C94.7165 76.4061 89.962 76.8876 88.5033 75.7351C88.1168 75.4297 88.1635 75.317 88.1052 74.85C88.6185 73.9146 89.3211 73.6907 90.3004 73.3639Z" fill="black"/>
<path d="M81.9666 104.512C82.5586 104.565 83.1002 104.638 83.6488 104.881C84.4861 105.253 85.0763 105.983 85.3991 106.831C85.682 107.575 85.719 108.45 85.3512 109.174C84.8422 110.175 83.9426 110.569 82.9256 110.892C82.3789 110.829 81.8094 110.698 81.321 110.437C80.4496 109.971 79.6667 108.995 79.4 108.045C79.1986 107.328 79.3051 106.646 79.6776 106.002C80.1877 105.121 81.0355 104.784 81.9666 104.512Z" fill="black"/>
<path d="M93.6517 79.6821L107.929 93.2312L93.7843 107.259C93.51 107.197 93.3339 107.122 93.0959 106.955C91.8072 106.051 90.5561 104.432 89.4142 103.314C86.1143 100.085 82.8046 96.8615 79.4533 93.6859C82.1898 90.4806 85.4183 87.5995 88.437 84.6601C90.1442 82.9975 91.7507 81.1222 93.6517 79.6821ZM93.6078 82.8954L82.8162 93.5192L93.5448 103.824L104.412 93.4453L93.6078 82.8954Z" fill="black"/>
<path d="M93.3789 88.6781C93.5252 88.6636 93.7165 88.6354 93.8654 88.6571C95.1494 88.8459 96.9305 91.0244 97.6964 92.0428C97.9961 92.4406 98.2475 92.7979 98.1656 93.3069C97.8403 95.3278 95.4364 97.1122 93.8357 98.1727C93.5897 98.1716 93.3376 98.1788 93.0959 98.1201C91.8695 97.823 90.2594 96.3097 89.6297 95.2757C89.1961 94.5634 88.9529 93.7486 89.1551 92.9258C89.6391 90.9548 91.7568 89.6715 93.3789 88.6781ZM93.3546 91.2436C92.6745 91.6454 91.8546 92.1211 91.5851 92.92C91.4039 93.4569 91.5021 94.025 91.8217 94.4808C92.1383 94.9322 92.7082 95.5358 93.277 95.613L93.697 95.6021C94.6353 95.0079 95.4023 94.53 95.7146 93.4181C95.552 92.5805 95.1277 92.0642 94.4114 91.5965C94.0734 91.3758 93.7444 91.3182 93.3546 91.2436Z" fill="black"/>
</svg>
